<svg xmlns="http://www.w3.org/2000/svg" xmlns:xlink="http://www.w3.org/1999/xlink" version="1.1" x="0px" y="0px" width="100px" height="100px" viewBox="0 0 100 100" enable-background="new 0 0 100 100" xml:space="preserve">
<g id="Captions">
</g>
<g id="Your_Icon">
	<polygon points="95.932,25.482 95.932,13.91 88.719,16.194 95.932,7.89 95.932,0 78.756,0 48.443,30.312 47.198,41.107    43.461,35.294 21.662,57.092 23.736,68.72 18.548,60.207 20.002,76.609 13.357,65.398 11.697,67.059 14.467,84.363 82.133,16.697    82.371,23.066 17.771,87.668 31.573,89.841 34.272,87.141 27.06,83.666 37.387,83.666 60.25,60.803 52.152,61.01 67.488,53.924     "/>
	<polygon points="81.043,19.301 4.068,96.094 4.068,100 81.23,22.84  "/>
</g>
</svg>